<svg width="20" height="20" viewBox="0 0 20 20" fill="none" xmlns="http://www.w3.org/2000/svg">
<path fill-rule="evenodd" clip-rule="evenodd" d="M17.435 3.29289C17.8256 3.68342 17.8256 4.31658 17.435 4.70711L11.7782 10.364L17.435 16.0208C17.8256 16.4113 17.8256 17.0445 17.435 17.435C17.0445 17.8256 16.4114 17.8256 16.0208 17.435L10.364 11.7782L4.70711 17.435C4.31658 17.8256 3.68342 17.8256 3.29289 17.435C2.90237 17.0445 2.90237 16.4113 3.29289 16.0208L8.94975 10.364L3.29291 4.70711C2.90238 4.31658 2.90238 3.68342 3.29291 3.29289C3.68343 2.90237 4.3166 2.90237 4.70712 3.29289L10.364 8.94974L16.0208 3.29289C16.4113 2.90237 17.0445 2.90237 17.435 3.29289Z" fill="#44465A"/>
</svg>
