<svg width="20" height="20" viewBox="0 0 20 20" fill="none" xmlns="http://www.w3.org/2000/svg">
<path d="M10 12.5C9.625 12.5 9.375 12.25 9.375 11.875C9.4375 11.0625 9.875 10.375 10.5 9.875C10.875 9.5 11.25 9.125 11.25 8.75C11.25 8.0625 10.6875 7.5 10 7.5C9.3125 7.5 8.75 8.0625 8.75 8.75C8.75 9.125 8.5 9.375 8.125 9.375C7.75 9.375 7.5 9.125 7.5 8.75C7.5 7.375 8.625 6.25 10 6.25C11.375 6.25 12.5 7.375 12.5 8.75C12.4375 9.5625 12 10.25 11.375 10.75C11 11.125 10.625 11.5 10.625 11.875C10.625 12.25 10.375 12.5 10 12.5Z" fill="#44465A"/>
<path d="M10 14.375C10.3452 14.375 10.625 14.0952 10.625 13.75C10.625 13.4048 10.3452 13.125 10 13.125C9.65482 13.125 9.375 13.4048 9.375 13.75C9.375 14.0952 9.65482 14.375 10 14.375Z" fill="#44465A"/>
<path d="M2.75048 18.0001C2.56298 17.8751 2.50048 17.6251 2.50048 17.3751L3.06298 14.1876C0.750477 10.3751 2.00048 5.37505 5.81298 3.12505C9.62548 0.875054 14.6255 2.06255 16.938 5.87505C19.2505 9.68755 18.0005 14.6876 14.188 17.0001C11.688 18.5001 8.50048 18.5626 6.00048 17.0626L3.43798 18.1251C3.12548 18.1876 2.93798 18.1251 2.75048 18.0001ZM6.00048 15.7501C6.12548 15.7501 6.25048 15.8126 6.31298 15.8751C9.56298 17.9376 13.813 16.9376 15.813 13.7501C17.813 10.5626 16.8755 6.25005 13.688 4.25005C10.5005 2.25005 6.25048 3.06255 4.18798 6.31255C2.75048 8.56255 2.75048 11.5001 4.18798 13.7501C4.25048 13.8751 4.31298 14.0626 4.25048 14.1876L3.87548 16.5001L5.68798 15.7501H6.00048Z" fill="#44465A"/>
</svg>
