<svg width="20" height="20" viewBox="0 0 20 20" fill="none" xmlns="http://www.w3.org/2000/svg">
<path fill-rule="evenodd" clip-rule="evenodd" d="M9.46966 2.71967C9.61032 2.57902 9.80108 2.5 9.99999 2.5C10.1989 2.5 10.3897 2.57902 10.5303 2.71967C10.671 2.86032 10.75 3.05109 10.75 3.25V3.3175L10.75 3.32049C10.7515 3.7081 10.8664 4.08679 11.0804 4.40996C11.2937 4.732 11.5962 4.9849 11.9508 5.13776C12.3132 5.29681 12.7148 5.34408 13.1042 5.27347C13.495 5.20262 13.8556 5.01637 14.1395 4.73868L14.1906 4.68753C14.2603 4.6178 14.343 4.56248 14.434 4.52474C14.5251 4.48699 14.6227 4.46757 14.7212 4.46757C14.8198 4.46757 14.9174 4.48699 15.0084 4.52474C15.0995 4.56248 15.1822 4.6178 15.2519 4.68753L15.2525 4.68812C15.3222 4.75778 15.3775 4.84049 15.4152 4.93154C15.453 5.02259 15.4724 5.12019 15.4724 5.21875C15.4724 5.31731 15.453 5.4149 15.4152 5.50595C15.3775 5.597 15.3219 5.68001 15.2522 5.74967L15.2071 5.79464L15.2013 5.80055C14.9236 6.08443 14.7374 6.445 14.6665 6.83575C14.605 7.17499 14.6329 7.52348 14.7463 7.8472C14.7552 7.91531 14.7735 7.98203 14.8006 8.04544C14.9533 8.40171 15.2069 8.70555 15.53 8.91957C15.8532 9.13359 16.2319 9.24844 16.6195 9.24999L16.6225 9.24999H16.75C16.9489 9.24999 17.1397 9.32901 17.2803 9.46966C17.421 9.61032 17.5 9.80108 17.5 9.99999C17.5 10.1989 17.421 10.3897 17.2803 10.5303C17.1397 10.671 16.9489 10.75 16.75 10.75L16.6825 10.75L16.6795 10.75C16.2919 10.7515 15.9132 10.8664 15.59 11.0804C15.268 11.2937 15.015 11.5962 14.8622 11.9509C14.7032 12.3133 14.6559 12.7148 14.7265 13.1042C14.7974 13.495 14.9836 13.8556 15.2613 14.1395L15.3125 14.1906C15.3822 14.2603 15.4375 14.343 15.4752 14.434C15.513 14.5251 15.5324 14.6227 15.5324 14.7212C15.5324 14.8198 15.513 14.9174 15.4752 15.0084C15.4375 15.0995 15.3822 15.1822 15.3125 15.2519L15.3119 15.2525C15.2422 15.3222 15.1595 15.3775 15.0684 15.4152C14.9774 15.453 14.8798 15.4724 14.7812 15.4724C14.6827 15.4724 14.5851 15.453 14.494 15.4152C14.403 15.3775 14.32 15.3219 14.2503 15.2522L14.2053 15.2071L14.1994 15.2013C13.9156 14.9236 13.555 14.7374 13.1642 14.6665C12.7748 14.5959 12.3733 14.6432 12.0109 14.8022C11.6562 14.955 11.3537 15.208 11.1404 15.53C10.9264 15.8532 10.8115 16.2319 10.81 16.6195L10.81 16.6225V16.75C10.81 16.9489 10.731 17.1397 10.5903 17.2803C10.4497 17.421 10.2589 17.5 10.06 17.5C9.86108 17.5 9.67032 17.421 9.52966 17.2803C9.38901 17.1397 9.30999 16.9489 9.30999 16.75V16.6825L9.30979 16.6649C9.30046 16.2663 9.17141 15.8796 8.9394 15.5552C8.712 15.2373 8.39599 14.9936 8.03107 14.8544C7.67346 14.7016 7.27871 14.6571 6.89575 14.7265C6.505 14.7974 6.1444 14.9836 5.86052 15.2613L5.80937 15.3125C5.73972 15.3822 5.657 15.4375 5.56595 15.4752C5.4749 15.513 5.37731 15.5324 5.27875 15.5324C5.18019 15.5324 5.08259 15.513 4.99154 15.4752C4.90049 15.4375 4.81778 15.3822 4.74812 15.3125L4.74753 15.3119C4.6778 15.2422 4.62248 15.1595 4.58474 15.0684C4.54699 14.9774 4.52757 14.8798 4.52757 14.7812C4.52757 14.6827 4.54699 14.5851 4.58474 14.494C4.62248 14.403 4.67809 14.32 4.74782 14.2503L4.79286 14.2054L4.79864 14.1994C5.07634 13.9156 5.26262 13.555 5.33347 13.1642C5.40408 12.7748 5.35681 12.3732 5.19776 12.0108C5.0449 11.6562 4.792 11.3537 4.46996 11.1404C4.14679 10.9264 3.7681 10.8115 3.38049 10.81H3.25C3.05109 10.81 2.86032 10.731 2.71967 10.5903C2.57902 10.4497 2.5 10.2589 2.5 10.06C2.5 9.86108 2.57902 9.67032 2.71967 9.52966C2.86032 9.38901 3.05109 9.30999 3.25 9.30999H3.3175L3.33504 9.30979C3.73373 9.30046 4.1204 9.17141 4.44478 8.9394C4.76273 8.712 5.00641 8.39599 5.14558 8.03108C5.29834 7.67347 5.34291 7.27872 5.27347 6.89575C5.20262 6.505 5.01637 6.1444 4.73868 5.86052L4.68753 5.80937C4.6178 5.73972 4.56248 5.657 4.52474 5.56595C4.48699 5.4749 4.46757 5.37731 4.46757 5.27875C4.46757 5.18018 4.48699 5.08259 4.52474 4.99154C4.56248 4.90049 4.6178 4.81778 4.68753 4.74812L4.68812 4.74753C4.75778 4.6778 4.84049 4.62248 4.93154 4.58474C5.02259 4.54699 5.12018 4.52757 5.21875 4.52757C5.31731 4.52757 5.4149 4.54699 5.50595 4.58474C5.597 4.62248 5.68001 4.67809 5.74967 4.74783L5.79463 4.79286L5.80055 4.79864C6.08443 5.07634 6.445 5.26262 6.83575 5.33347C7.17499 5.39498 7.52348 5.36703 7.8472 5.25367C7.91531 5.24477 7.98203 5.22653 8.04544 5.19935C8.40171 5.04666 8.70555 4.79313 8.91957 4.46996C9.13359 4.14679 9.24845 3.7681 9.24999 3.38049V3.25C9.24999 3.05109 9.32901 2.86032 9.46966 2.71967ZM16.2361 12.5528L15.55 12.25L16.2393 12.5454C16.2768 12.4581 16.339 12.3835 16.4182 12.331C16.4972 12.2787 16.5897 12.2506 16.6844 12.25H16.75C17.3467 12.25 17.919 12.0129 18.341 11.591C18.7629 11.169 19 10.5967 19 9.99999C19 9.40325 18.7629 8.83096 18.341 8.409C17.919 7.98705 17.3467 7.74999 16.75 7.74999H16.6244C16.5297 7.7494 16.4372 7.72124 16.3582 7.66895C16.3051 7.63373 16.2596 7.58859 16.2241 7.53629C16.2134 7.48519 16.1973 7.4352 16.1761 7.38717C16.1368 7.29806 16.1251 7.19921 16.1425 7.10336C16.1596 7.00856 16.2045 6.921 16.2714 6.85173L16.3128 6.81032C16.5219 6.60142 16.6877 6.35338 16.8009 6.08036C16.9141 5.80722 16.9724 5.51443 16.9724 5.21875C16.9724 4.92306 16.9141 4.63028 16.8009 4.35713C16.6878 4.08424 16.522 3.8363 16.3131 3.62746C16.1041 3.41827 15.856 3.25231 15.5829 3.13908C15.3097 3.02585 15.0169 2.96757 14.7212 2.96757C14.4256 2.96757 14.1328 3.02585 13.8596 3.13908C13.5865 3.25231 13.3383 3.41827 13.1294 3.62746L13.0882 3.66858C13.019 3.73546 12.9314 3.78035 12.8366 3.79753C12.7408 3.81491 12.6419 3.80314 12.5528 3.76381L12.5454 3.76064C12.4581 3.72319 12.3835 3.661 12.331 3.58173C12.2787 3.50278 12.2506 3.41031 12.25 3.31562V3.25C12.25 2.65326 12.0129 2.08097 11.591 1.65901C11.169 1.23705 10.5967 1 9.99999 1C9.40326 1 8.83096 1.23705 8.409 1.65901C7.98705 2.08097 7.74999 2.65326 7.74999 3.25V3.37562C7.7494 3.47031 7.72124 3.56278 7.66895 3.64173C7.63373 3.69492 7.58859 3.74042 7.5363 3.77591C7.48519 3.78662 7.4352 3.80265 7.38717 3.82385C7.29806 3.86318 7.1992 3.87491 7.10336 3.85753C7.00856 3.84034 6.921 3.79546 6.85173 3.72857L6.81062 3.68746C6.60166 3.47827 6.35351 3.31231 6.08036 3.19908C5.80722 3.08585 5.51443 3.02757 5.21875 3.02757C4.92306 3.02757 4.63028 3.08585 4.35713 3.19908C4.08411 3.31225 3.83607 3.47811 3.62717 3.68717C3.41811 3.89607 3.25225 4.14411 3.13908 4.41713C3.02585 4.69028 2.96757 4.98306 2.96757 5.27875C2.96757 5.57443 3.02585 5.86722 3.13908 6.14036C3.25231 6.41351 3.41827 6.66166 3.62746 6.87062L3.66857 6.91173C3.73546 6.981 3.78034 7.06856 3.79753 7.16336C3.81491 7.2592 3.80318 7.35806 3.76385 7.44717C3.75747 7.46163 3.75155 7.47628 3.7461 7.49111C3.71233 7.58292 3.65173 7.66244 3.57216 7.71935C3.49443 7.77494 3.40212 7.80644 3.30673 7.80999H3.25C2.65326 7.80999 2.08097 8.04705 1.65901 8.469C1.23705 8.89096 1 9.46325 1 10.06C1 10.6567 1.23705 11.229 1.65901 11.651C2.08097 12.0729 2.65326 12.31 3.25 12.31H3.37562C3.47031 12.3106 3.56278 12.3387 3.64173 12.391C3.721 12.4435 3.78315 12.5181 3.8206 12.6055L3.82385 12.6128C3.86318 12.7019 3.87491 12.8008 3.85753 12.8966C3.84035 12.9914 3.79546 13.079 3.72858 13.1482L3.68746 13.1894C3.47826 13.3983 3.31231 13.6465 3.19908 13.9196C3.08585 14.1928 3.02757 14.4856 3.02757 14.7812C3.02757 15.0769 3.08585 15.3697 3.19908 15.6429C3.31231 15.916 3.47826 16.1641 3.68746 16.3731C3.89631 16.582 4.14424 16.7478 4.41713 16.8609C4.69028 16.9741 4.98306 17.0324 5.27875 17.0324C5.57443 17.0324 5.86722 16.9741 6.14036 16.8609C6.41338 16.7477 6.66171 16.5816 6.87062 16.3725L6.91172 16.3314C6.981 16.2645 7.06856 16.2196 7.16336 16.2024C7.25921 16.1851 7.35806 16.1968 7.44717 16.2361C7.46163 16.2425 7.47628 16.2484 7.49111 16.2539C7.58292 16.2877 7.66244 16.3483 7.71935 16.4278C7.77494 16.5056 7.80644 16.5979 7.80999 16.6933V16.75C7.80999 17.3467 8.04705 17.919 8.469 18.341C8.89096 18.7629 9.46325 19 10.06 19C10.6567 19 11.229 18.7629 11.651 18.341C12.0729 17.919 12.31 17.3467 12.31 16.75V16.6244C12.3106 16.5297 12.3387 16.4372 12.391 16.3582C12.4435 16.279 12.5181 16.2168 12.6055 16.1794L12.6128 16.1761C12.7019 16.1368 12.8008 16.1251 12.8966 16.1425C12.9914 16.1596 13.079 16.2045 13.1482 16.2714L13.1897 16.3128C13.3986 16.5219 13.6466 16.6877 13.9196 16.8009C14.1928 16.9141 14.4856 16.9724 14.7812 16.9724C15.0769 16.9724 15.3697 16.9141 15.6429 16.8009C15.9159 16.6877 16.1639 16.5219 16.3728 16.3128C16.5819 16.1039 16.7477 15.8559 16.8609 15.5829C16.9741 15.3097 17.0324 15.0169 17.0324 14.7212C17.0324 14.4256 16.9741 14.1328 16.8609 13.8596C16.7477 13.5866 16.5816 13.3383 16.3725 13.1294L16.3314 13.0882C16.2645 13.019 16.2196 12.9314 16.2024 12.8366C16.1851 12.7408 16.1968 12.6419 16.2361 12.5528ZM16.3728 16.3128C16.3729 16.3127 16.373 16.3126 16.3731 16.3125L15.8425 15.7825L16.3725 16.3131C16.3726 16.313 16.3727 16.3129 16.3728 16.3128ZM8.50003 10C8.50003 9.17158 9.1716 8.50001 10 8.50001C10.8285 8.50001 11.5 9.17158 11.5 10C11.5 10.8284 10.8285 11.5 10 11.5C9.1716 11.5 8.50003 10.8284 8.50003 10ZM10 7.00001C8.34318 7.00001 7.00003 8.34315 7.00003 10C7.00003 11.6569 8.34318 13 10 13C11.6569 13 13 11.6569 13 10C13 8.34315 11.6569 7.00001 10 7.00001Z" fill="#44465A"/>
</svg>
