<svg width="20" height="20" viewBox="0 0 20 20" fill="none" xmlns="http://www.w3.org/2000/svg">
<path fill-rule="evenodd" clip-rule="evenodd" d="M1.9 1C1.40294 1 1 1.40294 1 1.9V8.2C1 8.69706 1.40294 9.1 1.9 9.1H8.2C8.69706 9.1 9.1 8.69706 9.1 8.2V1.9C9.1 1.40294 8.69706 1 8.2 1H1.9ZM2.8 7.3V2.8H7.3V7.3H2.8ZM11.8 1C11.3029 1 10.9 1.40294 10.9 1.9V8.2C10.9 8.69706 11.3029 9.1 11.8 9.1H18.1C18.5971 9.1 19 8.69706 19 8.2V1.9C19 1.40294 18.5971 1 18.1 1H11.8ZM12.7 7.3V2.8H17.2V7.3H12.7ZM10.9 11.8C10.9 11.3029 11.3029 10.9 11.8 10.9H18.1C18.5971 10.9 19 11.3029 19 11.8V18.1C19 18.5971 18.5971 19 18.1 19H11.8C11.3029 19 10.9 18.5971 10.9 18.1V11.8ZM12.7 12.7V17.2H17.2V12.7H12.7ZM1.9 10.9C1.40294 10.9 1 11.3029 1 11.8V18.1C1 18.5971 1.40294 19 1.9 19H8.2C8.69706 19 9.1 18.5971 9.1 18.1V11.8C9.1 11.3029 8.69706 10.9 8.2 10.9H1.9ZM2.8 17.2V12.7H7.3V17.2H2.8Z" fill="white"/>
</svg>
